
        <svg xmlns="http://www.w3.org/2000/svg" xmlns:xlink="http://www.w3.org/1999/xlink" version="1.1" width="3146.4605370219692" 
        height="864.1171684296177" viewBox="0 0 3146.4605370219692 864.1171684296177">
			
			<g transform="scale(7.323026851098454) translate(10, 10)">
				<defs id="SvgjsDefs26483"><linearGradient id="SvgjsLinearGradient26490"><stop id="SvgjsStop26491" stop-color="#00ff8f" offset="0"></stop><stop id="SvgjsStop26492" stop-color="#00a1ff" offset="1"></stop></linearGradient><linearGradient id="SvgjsLinearGradient26493"><stop id="SvgjsStop26494" stop-color="#fbb040" offset="0"></stop><stop id="SvgjsStop26495" stop-color="#f9ed32" offset="1"></stop></linearGradient></defs><g id="SvgjsG26484" featureKey="symbolGroupContainer" transform="matrix(1,0,0,1,0,0)" fill="url(#SvgjsLinearGradient26490)"><rect xmlns="http://www.w3.org/2000/svg" width="98" height="98" rx="10" ry="10"></rect></g><g id="SvgjsG26485" featureKey="QMusi1-0" transform="matrix(0.6481481481481481,0,0,0.6481481481481481,16.759259877381503,16.75925925925926)" fill="#0a3042"><g xmlns="http://www.w3.org/2000/svg"><path d="M78.4,66.5c-5.5,4.8-9.9,15.2-9.9,15.2s-6.9-11.4-12.9-15.3c-9.5-6.1-13.6-6.2-13.6-6.2V65c0,0,7.8,1.2,11.7,4.6   c8.2,7.1,14.8,18.5,14.8,18.5S74.4,75,80.1,70.5C88.1,64.3,95,65,95,65v-4.8C95,60.1,85.1,60.7,78.4,66.5z"></path><path d="M42,80c-6.4-3.6-17.8-4.3-17.8-4.3s8.7-10.1,10.5-17C37.5,47.9,36.2,44,36.2,44l-4.6,1.6c0,0,1.3,7.7-0.6,12.4   c-4.1,9.9-13,19.8-13,19.8s14.6,1.3,20.7,5.1c8.6,5.4,10.2,12,10.2,12l4.6-1.6C53.5,93.4,49.7,84.4,42,80z"></path><path d="M35.3,36.8c11.3-0.9,14.6-3.4,14.6-3.4l-3-3.8c0,0-6.9,3.7-12.1,3.4c-10.9-0.6-23.3-5.6-23.3-5.6s3.5,14,1.8,20.9   C10.9,58.2,5,61.8,5,61.8l3,3.8c0,0,7.5-6.5,9.1-15.1c1.3-7.1-1.7-18-1.7-18S28,37.4,35.3,36.8z"></path><path d="M37.4,17.8c7.3-1.1,16.7-7.4,16.7-7.4s-0.6,13.2,2.4,19.8c4.6,10.2,8,12.5,8,12.5l2.7-4c0,0-5.9-5.2-7.3-10.2   C56.9,18.2,57.7,5,57.7,5s-12.3,7.8-19.5,8.5c-10.2,1-15.6-3.3-15.6-3.3l-2.7,4.1C19.9,14.2,28.6,19.1,37.4,17.8z"></path><path d="M65,60.5c0,0,3.1-7.2,7.4-10.1c9-6.1,21.9-9.7,21.9-9.7s-11.5-8.9-14.5-15.4c-4.2-9.1-1.9-15.6-1.9-15.6l-4.8-1.2   c0,0-1.9,9.6,2.2,17.4c3.4,6.4,12.5,13.2,12.5,13.2S75,42.9,69.6,47.8c-8.3,7.6-9.4,11.5-9.4,11.5L65,60.5z"></path></g></g><g id="SvgjsG26486" featureKey="UyNsn2-0" transform="matrix(2.4263780603700327,0,0,2.4263780603700327,115.57241259873928,18.25917781764337)" fill="url(#SvgjsLinearGradient26493)"><path d="M3.7722 13.119 c-0.84724 -0.4016 -1.4886 -0.94178 -1.9056 -1.6061 c-0.31962 -0.51136 -0.48816 -1.1113 -0.48816 -1.7358 c0 -1.156 0.60316 -2.265 1.655 -3.0422 c0.95632 -0.69192 2.1924 -1.0718 3.483 -1.0718 c1.8915 0 3.2672 0.89076 4.272 1.5413 l0.047774 0.030996 c0.29386 0.2041 0.48882 0.50018 0.5581 0.84012 c0.071132 0.34876 0.00066406 0.69836 -0.19854 0.98444 c-0.17734 0.2849 -0.47004 0.4902 -0.81454 0.56438 c-0.34704 0.074024 -0.70156 0.0066016 -0.99848 -0.19141 c-0.94988 -0.63314 -1.821 -1.1572 -2.8664 -1.1572 c-0.72596 0 -1.4267 0.21088 -1.923 0.5786 c-0.38736 0.28694 -0.58384 0.5974 -0.58384 0.92296 c0 0.18514 0.029648 0.26898 0.081308 0.35146 c0.043184 0.069102 0.15498 0.2124 0.41786 0.39414 c0.45292 0.3137 1.2573 0.59538 2.2098 0.77442 l0.0066016 0 c0.18699 0 0.33876 0.15176 0.33876 0.33876 s-0.15176 0.33876 -0.33876 0.33876 l-0.037949 0 c-0.020664 0 -0.041328 -0.0018555 -0.06166 -0.005586 c-1.0722 -0.19852 -1.9609 -0.51424 -2.5024 -0.88924 c-0.2766 -0.19141 -0.4807 -0.39076 -0.60654 -0.59214 c-0.12941 -0.20682 -0.18445 -0.41922 -0.18445 -0.71054 c0 -0.37942 0.14871 -0.9421 0.85806 -1.4675 c0.61028 -0.45224 1.4582 -0.71156 2.3262 -0.71156 c1.2351 0 2.199 0.57572 3.2422 1.271 c0.1433 0.095704 0.31386 0.12855 0.47986 0.092812 c0.16396 -0.03539 0.3032 -0.13295 0.3918 -0.27488 c0.10162 -0.14668 0.13381 -0.3108 0.1001 -0.47612 c-0.033868 -0.166 -0.13295 -0.31658 -0.27168 -0.41296 l-0.038614 -0.024726 c-0.9338 -0.60452 -2.2126 -1.4324 -3.9038 -1.4324 c-1.1491 0 -2.2442 0.33436 -3.0828 0.9414 c-0.87434 0.6462 -1.3774 1.5564 -1.3774 2.4954 c0 0.4973 0.13297 0.97308 0.38466 1.376 c0.34722 0.55202 0.89296 1.0076 1.622 1.353 c0.61368 0.29066 1.3776 0.52204 2.3344 0.70716 l0.0055859 0 c0.02084 0 0.04168 0.0020312 0.062012 0.0057618 c1.1591 0.21614 2.1258 0.55032 2.7226 0.94126 c0.30064 0.20054 0.52016 0.42176 0.67394 0.67836 c0.15346 0.25558 0.219 0.48934 0.219 0.78118 c0 0.4287 -0.16564 1.061 -0.9541 1.6391 c-0.66498 0.48782 -1.6023 0.76746 -2.5716 0.76746 c-0.18699 0 -0.33876 -0.15176 -0.33876 -0.33876 s0.15176 -0.33876 0.33876 -0.33876 c0.82826 0 1.6194 -0.23188 2.171 -0.63634 c0.44936 -0.32946 0.67716 -0.69716 0.67716 -1.0927 c0 -0.16887 -0.032188 -0.28202 -0.12246 -0.43292 c-0.10264 -0.1709 -0.25084 -0.31758 -0.46662 -0.46172 c-0.50848 -0.333 -1.3984 -0.6372 -2.4426 -0.83454 l-0.0062695 0 c-0.021348 0 -0.042696 -0.0020312 -0.063692 -0.0060938 c-1.0287 -0.19682 -1.8557 -0.44732 -2.5288 -0.7661 z M11.528 13.829 c0.32638 0.5222 0.5063 1.1587 0.5063 1.7915 c0 1.2324 -0.64602 2.4044 -1.7722 3.2154 c-1.0046 0.73782 -2.322 1.1452 -3.7076 1.1452 c-2.151 -0.01998 -3.942 -1.0823 -5.0662 -1.97 c-0.55792 -0.45648 -0.65008 -1.2881 -0.21002 -1.8578 c0.46664 -0.57014 1.3019 -0.65058 1.8676 -0.18783 c0.25982 0.21258 0.56352 0.42176 0.87822 0.60486 c0.39262 0.22882 0.78948 0.41176 1.1804 0.54386 c0.17734 0.059786 0.27218 0.2522 0.2124 0.42938 s-0.25236 0.2727 -0.42936 0.2124 c-0.43378 -0.14668 -0.87266 -0.34876 -1.3042 -0.60028 c-0.34502 -0.20072 -0.67938 -0.43108 -0.9663 -0.666 c-0.27204 -0.22292 -0.68802 -0.18379 -0.90822 0.085196 c-0.20852 0.26982 -0.16346 0.68922 0.10416 0.90806 c1.0368 0.81844 2.6888 1.8024 4.645 1.8205 c1.2392 0 2.4142 -0.3606 3.306 -1.0156 c0.9497 -0.68396 1.4931 -1.6555 1.4931 -2.6674 c0 -0.50746 -0.14346 -1.0163 -0.40378 -1.4331 c-0.35536 -0.57148 -0.9304 -1.0454 -1.7583 -1.4494 c-0.36146 -0.17191 -0.7673 -0.3225 -1.2373 -0.45954 c-0.17955 -0.052168 -0.28288 -0.24018 -0.23038 -0.41988 c0.052168 -0.17955 0.24002 -0.28304 0.4199 -0.23038 c0.50526 0.14703 0.94394 0.31048 1.3416 0.49936 c0.94904 0.4629 1.615 1.0192 2.0394 1.7016 z M25.859 18.1194 c0.25594 0.74222 -0.10688 1.5299 -0.823 1.8014 c-0.17125 0.068262 -0.37484 0.078926 -0.4807 0.078926 c-0.57606 0 -1.0928 -0.35636 -1.2858 -0.88688 l-0.84554 -2.2432 l-4.1412 0 l-0.8469 2.247 c-0.2207 0.54016 -0.73104 0.88332 -1.3034 0.88332 c-0.16684 0 -0.3154 -0.023536 -0.4675 -0.07418 c-0.72936 -0.27642 -1.0923 -1.064 -0.8393 -1.7976 l4.1954 -11.182 c0.22274 -0.54472 0.76644 -0.89906 1.3229 -0.88398 c0.56894 -0.021856 1.0966 0.33146 1.3188 0.87466 l1.277 3.4026 c0.065722 0.17514 -0.023028 0.37026 -0.19816 0.43598 c-0.17531 0.065722 -0.37042 -0.023028 -0.43616 -0.19816 l-1.2732 -3.3934 c-0.11434 -0.27896 -0.37924 -0.45968 -0.67362 -0.44446 c-0.01 0.00050782 -0.02 0.00017578 -0.030156 0 c-0.27812 -0.013047 -0.5637 0.17801 -0.6765 0.45392 l-4.189 11.164 c-0.12975 0.3767 0.057422 0.78932 0.42904 0.93024 c0.068946 0.022696 0.14721 0.034882 0.2402 0.034882 c0.29608 0 0.56014 -0.17803 0.67296 -0.45362 l0.92618 -2.4574 c0.049804 -0.13195 0.176 -0.21936 0.31708 -0.21936 l4.6098 0 c0.14109 0 0.26744 0.087402 0.31708 0.21936 l0.92954 2.4664 c0.097226 0.26744 0.35806 0.4446 0.6504 0.4446 c0.11281 0 0.19717 -0.017617 0.23494 -0.032696 c0.3772 -0.1433 0.56438 -0.55574 0.4314 -0.94092 l-2.4026 -6.403 c-0.065722 -0.17514 0.023028 -0.37026 0.19816 -0.43598 c0.17531 -0.065898 0.37042 0.023028 0.43616 0.19816 z M19.321 13.0796 c0.17514 0.065898 0.26354 0.26136 0.19766 0.4365 l-0.22222 0.58944 l2.0942 0 l-1.0471 -2.779 l-0.32946 0.87452 c-0.066054 0.17496 -0.26134 0.26304 -0.43648 0.19768 c-0.17514 -0.065898 -0.26374 -0.26152 -0.19768 -0.43648 l0.64634 -1.716 c0.049804 -0.13195 0.176 -0.21936 0.31708 -0.21936 s0.26744 0.087402 0.31708 0.21936 l1.5366 4.0786 c0.039122 0.104 0.024902 0.2207 -0.038438 0.31216 s-0.16734 0.146 -0.27864 0.146 l-3.0732 0 c-0.11129 0 -0.21546 -0.054532 -0.27864 -0.146 s-0.077578 -0.20816 -0.038456 -0.31216 l0.39482 -1.0478 c0.065898 -0.17531 0.26136 -0.26374 0.4365 -0.1975 z M36.4176 13.2506 c0.15176 0.10926 0.18617 0.32096 0.076914 0.4729 l-0.64788 0.89992 c-0.27338 0.37296 -0.67364 0.57708 -1.1286 0.57708 l-0.037949 0 c-0.46022 0 -0.8779 -0.20954 -1.1459 -0.5747 l-2.1008 -2.9384 l0 6.9304 c0 0.7622 -0.6284 1.3821 -1.4011 1.3821 c-0.7622 0 -1.3821 -0.61992 -1.3821 -1.3821 l0 -5.5963 c0 -0.18699 0.15176 -0.33876 0.33876 -0.33876 s0.33876 0.15176 0.33876 0.33876 l0 5.5963 c0 0.38196 0.32268 0.70462 0.70462 0.70462 c0.39888 0 0.7236 -0.31606 0.7236 -0.7046 l0 -7.9864 c0 -0.14719 0.095196 -0.27744 0.23546 -0.3225 c0.13957 -0.045058 0.2932 0.005586 0.3789 0.12551 l2.7128 3.7942 c0.13635 0.1858 0.35484 0.29454 0.59704 0.29454 l0.037949 0 c0.23696 0 0.43768 -0.10314 0.58046 -0.29792 l0.6462 -0.89754 c0.10941 -0.1516 0.32114 -0.18633 0.4729 -0.076914 z M39.347 6.042999999999999 c0.77746 0.025918 1.4009 0.64584 1.4011 1.3821 l0 11.193 c0 0.74916 -0.6416 1.3821 -1.4009 1.3821 c-0.7622 0 -1.3821 -0.61992 -1.3821 -1.3821 l0 -6.9363 l-0.6218 0.86368 c-0.10908 0.1516 -0.3208 0.18648 -0.4729 0.076894 c-0.15176 -0.10941 -0.18631 -0.32114 -0.076894 -0.4729 l1.2355 -1.716 c0.086054 -0.11908 0.23968 -0.16922 0.37892 -0.12434 c0.1399 0.045058 0.23474 0.17531 0.23474 0.32234 l0 7.9866 c0 0.38856 0.31606 0.7046 0.7046 0.7046 c0.38534 0 0.72342 -0.32928 0.72342 -0.70462 l0 -11.193 c0 -0.36876 -0.33638 -0.69158 -0.73476 -0.70478 l-0.007793 0.00017578 c-0.2368 0 -0.43752 0.10314 -0.58064 0.2981 l-3.7736 5.2336 c-0.063692 0.088242 -0.16582 0.14059 -0.27472 0.14059 s-0.21104 -0.052344 -0.27472 -0.14059 l-3.775 -5.2358 c-0.13873 -0.2075 -0.37976 -0.29574 -0.56016 -0.29574 l-0.056914 0 c-0.38196 0 -0.70462 0.32268 -0.70462 0.70462 l0 3.3602 c0 0.18699 -0.15176 0.33876 -0.33876 0.33876 s-0.33876 -0.15176 -0.33876 -0.33876 l0 -3.3602 c0 -0.7622 0.61992 -1.3821 1.3821 -1.3821 l0.056914 0 c0.44056 0 0.87892 0.23052 1.1167 0.58724 l3.4932 4.8444 l3.5004 -4.8548 c0.27356 -0.37282 0.67364 -0.57692 1.1284 -0.57692 l0.018965 0 z M47.0944 8.358 c-0.18699 0 -0.33882 -0.15158 -0.339 -0.33892 l0 -0.18953 c0 -0.833 -0.3838 -1.3305 -1.027 -1.3305 c-0.56894 0 -0.95124 0.37466 -0.95124 0.93226 l0 0.15211 c0 0.51356 0.41296 0.843 0.82216 0.94176 c0.14652 0.03541 0.2522 0.16346 0.2588 0.3142 c0.044706 1.0058 -0.49868 1.7326 -1.5299 2.0464 c-0.12957 0.03998 -0.19598 0.10332 -0.19598 0.18818 c0 0.076562 0 0.19225 0.24934 0.19225 c0.4111 0 1.0734 -0.24612 1.5436 -0.7163 c0.3762 -0.37636 0.62756 -0.89332 0.74646 -1.5368 c0.034044 -0.18377 0.20986 -0.3054 0.39482 -0.27152 c0.18395 0.034044 0.30556 0.2107 0.27152 0.39482 c-0.14447 0.78066 -0.4585 1.4174 -0.93376 1.8925 c-0.54694 0.5471 -1.3598 0.9148 -2.0226 0.9148 c-0.55438 0 -0.92684 -0.3496 -0.92684 -0.86976 c0 -0.39348 0.25238 -0.70582 0.67516 -0.83608 c0.64416 -0.19613 0.99478 -0.5786 1.0466 -1.1391 c-0.56996 -0.22968 -1.0767 -0.75038 -1.0767 -1.5156 l0 -0.15176 c0 -0.93278 0.68498 -1.6098 1.6288 -1.6098 c1.0195 0 1.7045 0.80694 1.7045 2.008 l0 0.18953 c0 0.18699 -0.15176 0.33876 -0.33876 0.33876 z M52.9122 13.119 c-0.84724 -0.4016 -1.4886 -0.94178 -1.9056 -1.6061 c-0.31962 -0.51136 -0.48816 -1.1113 -0.48816 -1.7358 c0 -1.156 0.60316 -2.265 1.655 -3.0422 c0.95632 -0.69192 2.1924 -1.0718 3.483 -1.0718 c1.8915 0 3.2672 0.89076 4.272 1.5413 l0.047774 0.030996 c0.29386 0.2041 0.48882 0.50018 0.5581 0.84012 c0.071132 0.34876 0.00066406 0.69836 -0.19854 0.98444 c-0.17734 0.2849 -0.47004 0.4902 -0.81454 0.56438 c-0.34704 0.074024 -0.70156 0.0066016 -0.99848 -0.19141 c-0.94988 -0.63314 -1.821 -1.1572 -2.8664 -1.1572 c-0.72596 0 -1.4267 0.21088 -1.923 0.5786 c-0.38736 0.28694 -0.58384 0.5974 -0.58384 0.92296 c0 0.18514 0.029648 0.26898 0.081308 0.35146 c0.043184 0.069102 0.15498 0.2124 0.41786 0.39414 c0.45292 0.3137 1.2573 0.59538 2.2098 0.77442 l0.0066016 0 c0.18699 0 0.33876 0.15176 0.33876 0.33876 s-0.15176 0.33876 -0.33876 0.33876 l-0.037949 0 c-0.020664 0 -0.041328 -0.0018555 -0.06166 -0.005586 c-1.0722 -0.19852 -1.9609 -0.51424 -2.5024 -0.88924 c-0.2766 -0.19141 -0.4807 -0.39076 -0.60654 -0.59214 c-0.12941 -0.20682 -0.18445 -0.41922 -0.18445 -0.71054 c0 -0.37942 0.14871 -0.9421 0.85806 -1.4675 c0.61028 -0.45224 1.4582 -0.71156 2.3262 -0.71156 c1.2351 0 2.199 0.57572 3.2422 1.271 c0.1433 0.095704 0.31386 0.12855 0.47986 0.092812 c0.16396 -0.03539 0.3032 -0.13295 0.3918 -0.27488 c0.10162 -0.14668 0.13381 -0.3108 0.1001 -0.47612 c-0.033868 -0.166 -0.13295 -0.31658 -0.27168 -0.41296 l-0.038614 -0.024726 c-0.9338 -0.60452 -2.2126 -1.4324 -3.9038 -1.4324 c-1.1491 0 -2.2442 0.33436 -3.0828 0.9414 c-0.87434 0.6462 -1.3774 1.5564 -1.3774 2.4954 c0 0.4973 0.13297 0.97308 0.38466 1.376 c0.34722 0.55202 0.89296 1.0076 1.622 1.353 c0.61368 0.29066 1.3776 0.52204 2.3344 0.70716 l0.0055859 0 c0.02084 0 0.04168 0.0020312 0.062012 0.0057618 c1.1591 0.21614 2.1258 0.55032 2.7226 0.94126 c0.30064 0.20054 0.52016 0.42176 0.67394 0.67836 c0.15346 0.25558 0.219 0.48934 0.219 0.78118 c0 0.4287 -0.16564 1.061 -0.9541 1.6391 c-0.66498 0.48782 -1.6023 0.76746 -2.5716 0.76746 c-0.18699 0 -0.33876 -0.15176 -0.33876 -0.33876 s0.15176 -0.33876 0.33876 -0.33876 c0.82826 0 1.6194 -0.23188 2.171 -0.63634 c0.44936 -0.32946 0.67716 -0.69716 0.67716 -1.0927 c0 -0.16887 -0.032188 -0.28202 -0.12246 -0.43292 c-0.10264 -0.1709 -0.25084 -0.31758 -0.46662 -0.46172 c-0.50848 -0.333 -1.3984 -0.6372 -2.4426 -0.83454 l-0.0062695 0 c-0.021348 0 -0.042696 -0.0020312 -0.063692 -0.0060938 c-1.0287 -0.19682 -1.8557 -0.44732 -2.5288 -0.7661 z M60.668 13.829 c0.32638 0.5222 0.5063 1.1587 0.5063 1.7915 c0 1.2324 -0.64602 2.4044 -1.7722 3.2154 c-1.0046 0.73782 -2.322 1.1452 -3.7076 1.1452 c-2.151 -0.01998 -3.942 -1.0823 -5.0662 -1.97 c-0.55792 -0.45648 -0.65008 -1.2881 -0.21002 -1.8578 c0.46664 -0.57014 1.3019 -0.65058 1.8676 -0.18783 c0.25982 0.21258 0.56352 0.42176 0.87822 0.60486 c0.39262 0.22882 0.78948 0.41176 1.1804 0.54386 c0.17734 0.059786 0.27218 0.2522 0.2124 0.42938 s-0.25236 0.2727 -0.42936 0.2124 c-0.43378 -0.14668 -0.87266 -0.34876 -1.3042 -0.60028 c-0.34502 -0.20072 -0.67938 -0.43108 -0.9663 -0.666 c-0.27204 -0.22292 -0.68802 -0.18379 -0.90822 0.085196 c-0.20852 0.26982 -0.16346 0.68922 0.10416 0.90806 c1.0368 0.81844 2.6888 1.8024 4.645 1.8205 c1.2392 0 2.4142 -0.3606 3.306 -1.0156 c0.9497 -0.68396 1.4931 -1.6555 1.4931 -2.6674 c0 -0.50746 -0.14346 -1.0163 -0.40378 -1.4331 c-0.35536 -0.57148 -0.9304 -1.0454 -1.7583 -1.4494 c-0.36146 -0.17191 -0.7673 -0.3225 -1.2373 -0.45954 c-0.17955 -0.052168 -0.28288 -0.24018 -0.23038 -0.41988 c0.052168 -0.17955 0.24002 -0.28304 0.4199 -0.23038 c0.50526 0.14703 0.94394 0.31048 1.3416 0.49936 c0.94904 0.4629 1.615 1.0192 2.0394 1.7016 z M80.53300000000002 6.042999999999999 c0.7622 0 1.3821 0.61988 1.3821 1.3823 c0 0.75934 -0.63296 1.4009 -1.3821 1.4009 l-2.6777 0 l0 2.196 c0 0.18699 -0.15176 0.33876 -0.33876 0.33876 s-0.33876 -0.15176 -0.33876 -0.33876 l0 -2.5349 c0 -0.18699 0.15176 -0.33876 0.33876 -0.33876 l3.0165 0 c0.37536 0 0.70462 -0.33808 0.70462 -0.72342 c0 -0.38856 -0.31606 -0.7046 -0.7046 -0.7046 l-6.292 0 c-0.18699 0 -0.33876 -0.15176 -0.33876 -0.33876 s0.15176 -0.33876 0.33876 -0.33876 l6.292 0 z M77.516 12.4952 c0.18717 0 0.3388 0.15162 0.3388 0.33878 l0 5.7837 c0 0.77508 -0.60704 1.3821 -1.382 1.3821 c-0.7622 0 -1.3821 -0.61992 -1.3821 -1.3821 l0 -9.7915 l-2.6586 0 c-0.7622 0 -1.3821 -0.6284 -1.3821 -1.4009 c0 -0.77508 0.60704 -1.3821 1.3821 -1.3821 c0.18699 0 0.33876 0.15176 0.33876 0.33876 s-0.15176 0.33876 -0.33876 0.33876 c-0.40178 0 -0.70462 0.30286 -0.70462 0.70462 c0 0.39888 0.31606 0.72342 0.7046 0.72342 l2.9973 0 c0.18699 0 0.33876 0.15176 0.33876 0.33876 l0 10.13 c0 0.38856 0.31606 0.7046 0.7046 0.7046 c0.4016 0 0.70446 -0.30286 0.70446 -0.70462 l0 -5.7837 c0 -0.18699 0.15176 -0.33876 0.33876 -0.33876 z M88.7454 19.32248 c0.18717 0 0.33894 0.15156 0.33894 0.33856 s-0.15176 0.33876 -0.33876 0.33876 l-2.6914 0 c-0.010332 0 -0.020488 -0.00033204 -0.030488 -0.0010156 c-0.0088086 0.0006836 -0.017617 0.0010156 -0.026426 0.0010156 c-0.76204 0 -1.3821 -0.61992 -1.3821 -1.3821 l0 -7.4639 c0 -0.18699 0.15176 -0.33876 0.33876 -0.33876 s0.33876 0.15176 0.33876 0.33876 l0 7.4641 c0 0.3618 0.27388 0.66076 0.62518 0.70024 c0.067578 -0.020488 0.14125 -0.019805 0.2102 0.004414 l2.6174 0 z M84.95400000000001 10.057 c-0.18717 0 -0.33876 -0.1516 -0.33876 -0.33878 l0 -2.2932 c0 -0.77508 0.60704 -1.3821 1.3821 -1.3821 l6.2034 0 c0.76204 0 1.3821 0.61992 1.3821 1.3821 c0 0.75934 -0.63296 1.4009 -1.3821 1.4009 l-1.7092 0 c-0.18699 0 -0.33876 -0.15176 -0.33876 -0.33876 s0.15176 -0.33876 0.33876 -0.33876 l1.7092 0 c0.37536 0 0.70462 -0.33808 0.70462 -0.72342 c0 -0.38196 -0.32268 -0.70462 -0.70462 -0.70462 l-6.2034 0 c-0.4016 0 -0.70462 0.30286 -0.70462 0.70462 l0 2.2932 c0 0.18699 -0.15176 0.33876 -0.33876 0.33876 z M92.20060000000001 17.2166 c0.74934 0 1.3823 0.6416 1.3821 1.4009 c0 0.74916 -0.63296 1.3821 -1.3821 1.3821 l-1.9226 0 c-0.18699 0 -0.33876 -0.15176 -0.33876 -0.33876 s0.15176 -0.33876 0.33876 -0.33876 l1.9226 0 c0.37536 0 0.70462 -0.32928 0.70462 -0.70462 c0 -0.3855 -0.32928 -0.7236 -0.70462 -0.7236 l-5.141 0 c-0.18699 0 -0.33876 -0.15176 -0.33876 -0.33876 l0 -3.4906 c0 -0.18699 0.15176 -0.33876 0.33876 -0.33876 l4.4201 0 c0.38856 0 0.7046 -0.32454 0.7046 -0.72342 c0 -0.37536 -0.32928 -0.70462 -0.70462 -0.70462 l-4.4201 0 c-0.18699 0 -0.33876 -0.15176 -0.33876 -0.33876 l0 -3.4716 c0 -0.18699 0.15176 -0.33876 0.33876 -0.33876 l1.7053 0 c0.18699 0 0.33876 0.15176 0.33876 0.33876 s-0.15176 0.33876 -0.33876 0.33876 l-1.3666 0 l0 2.7943 l4.0814 0 c0.74916 0 1.3821 0.63296 1.3821 1.3821 c0 0.77236 -0.61992 1.4009 -1.3821 1.4009 l-4.0814 0 l0 2.8131 l4.8023 0 z M96.95750000000001 12.833400000000001 c0.0084766 1.6747 0.66984 3.2688 1.8621 4.4852 c0.13109 0.13363 0.12889 0.34824 -0.004746 0.47918 c-0.065898 0.064532 -0.1516 0.096718 -0.23712 0.096718 c-0.087734 0 -0.17547 -0.034044 -0.24188 -0.10162 c-1.3163 -1.343 -2.0464 -3.1044 -2.0558 -4.9594 c0.007461 -1.4733 0.47004 -2.888 1.3376 -4.095 c0.67176 -0.9348 1.5702 -1.7109 2.5976 -2.2444 c1.0349 -0.53744 2.198 -0.82454 3.3638 -0.8303 c1.6999 0 3.2872 0.53642 4.5918 1.5508 c0.59436 0.4951 0.7031 1.363 0.25662 1.9831 c-0.003379 0.0045704 -0.0069336 0.0091406 -0.010488 0.013535 c-0.4856 0.6074 -1.3977 0.72816 -1.9909 0.26388 c-0.7788 -0.63688 -1.7607 -0.97124 -2.8454 -0.97124 c-0.22918 0 -0.46022 0.017793 -0.68684 0.052676 c-0.18631 0.02795 -0.3579 -0.098418 -0.38634 -0.2832 c-0.028456 -0.18496 0.098418 -0.3579 0.2832 -0.38634 c0.26084 -0.040136 0.5266 -0.060468 0.79016 -0.060468 c1.2429 0 2.3732 0.3872 3.2688 1.1198 c0.29404 0.2302 0.7771 0.16092 1.0332 -0.15143 c0.23376 -0.33232 0.17447 -0.79304 -0.13668 -1.0525 c-1.1758 -0.91414 -2.6194 -1.4011 -4.1654 -1.4011 c-1.0571 0.005254 -2.1136 0.2661 -3.0534 0.75424 c-0.9338 0.48476 -1.7497 1.1895 -2.3598 2.0384 c-0.7849 1.0922 -1.2034 2.3716 -1.2102 3.6998 z M108.42800000000001 16.4656 c0.45004 0.62518 0.336 1.5139 -0.25394 1.9814 c-1.3069 1.0164 -2.8942 1.5529 -4.5924 1.5529 c-1.2155 0 -2.423 -0.30608 -3.4916 -0.88502 c-0.16463 -0.089102 -0.2256 -0.29472 -0.1365 -0.45936 c0.089102 -0.16447 0.29472 -0.22562 0.4592 -0.13652 c0.96986 0.5254 2.0656 0.80318 3.1688 0.80318 c1.5461 0 2.9896 -0.48698 4.1742 -1.4084 c0.30522 -0.24136 0.36314 -0.7075 0.12975 -1.0424 c-0.25848 -0.30032 -0.74528 -0.36806 -1.0483 -0.14398 c-0.91668 0.7336 -2.0156 1.1096 -3.2556 1.1096 c-1.3474 0 -2.6424 -0.51762 -3.6462 -1.4573 c-0.95022 -0.92888 -1.4921 -2.2202 -1.4921 -3.5482 c0 -1.3237 0.5122 -2.547 1.4814 -3.5378 c0.40498 -0.37942 0.85096 -0.68716 1.3359 -0.9248 c0.16785 -0.082148 0.37094 -0.012871 0.45326 0.15516 c0.082324 0.16785 0.012871 0.37094 -0.15516 0.45326 c-0.4248 0.20816 -0.81524 0.47766 -1.1606 0.80066 c-0.832 0.85114 -1.2775 1.9108 -1.2775 3.0536 c0 1.1467 0.46766 2.2616 1.2829 3.0588 c0.87264 0.81658 2.003 1.2692 3.178 1.2692 c1.0823 0 2.0386 -0.32606 2.8426 -0.96902 c0.60028 -0.44428 1.507 -0.323 1.9895 0.25626 c0.0050782 0.0060938 0.01 0.012363 0.01457 0.018809 z M120.86800000000001 16.8088 c0.18717 0 0.33878 0.15152 0.33878 0.33852 l0 1.4702 c0 0.77508 -0.61536 1.3821 -1.4009 1.3821 c-0.77508 0 -1.3821 -0.60704 -1.3821 -1.3821 l0 -4.2142 l-4.2359 0 l0 4.2142 c0 0.77508 -0.61536 1.3821 -1.4011 1.3821 c-0.77508 0 -1.3821 -0.60704 -1.3821 -1.3821 l0 -11.193 c0 -0.77508 0.60704 -1.3821 1.3821 -1.3821 c0.78558 0 1.4011 0.60704 1.4011 1.3821 l0 4.2142 l1.4052 0 c0.18699 0 0.33876 0.15176 0.33876 0.33876 s-0.15176 0.33876 -0.33876 0.33876 l-1.7439 0 c-0.18699 0 -0.33876 -0.15176 -0.33876 -0.33876 l0 -4.5529 c0 -0.39516 -0.31776 -0.7046 -0.7236 -0.7046 c-0.4016 0 -0.70462 0.30286 -0.70462 0.70462 l0 11.193 c0 0.40178 0.30286 0.70462 0.70462 0.70462 c0.40584 0 0.7236 -0.30946 0.7236 -0.7046 l0 -4.5529 c0 -0.18699 0.15176 -0.33876 0.33876 -0.33876 l4.9134 0 c0.18699 0 0.33876 0.15176 0.33876 0.33876 l0 4.5531 c0 0.40178 0.30286 0.70462 0.70462 0.70462 c0.40566 0 0.72342 -0.30946 0.72342 -0.7046 l0 -1.4702 c0 -0.18699 0.15176 -0.33876 0.33876 -0.33876 z M119.80620000000002 6.042999999999999 c0.78558 0 1.4009 0.60704 1.4009 1.3821 l0 8.0381 c0 0.18699 -0.15176 0.33876 -0.33876 0.33876 s-0.33876 -0.15176 -0.33876 -0.33876 l0 -8.0381 c0 -0.39516 -0.31776 -0.7046 -0.72342 -0.7046 c-0.4016 0 -0.70462 0.30286 -0.70462 0.70462 l0 4.5529 c0 0.18699 -0.15176 0.33876 -0.33876 0.33876 l-1.9862 0 c-0.18699 0 -0.33876 -0.15176 -0.33876 -0.33876 s0.15176 -0.33876 0.33876 -0.33876 l1.6474 0 l0 -4.2142 c0 -0.77508 0.60704 -1.3821 1.3821 -1.3821 z"></path></g>
			</g>
		</svg>
	